<svg version="1.1" id="Layer_1"
	xmlns="http://www.w3.org/2000/svg"
	xmlns:xlink="http://www.w3.org/1999/xlink" viewBox="0 0 512.011 512.011" xml:space="preserve">
	<g transform="translate(0 -540.36)">
		<path style="fill:#D9D9D9;" d="M256.01,1052.371c-96.651,0-179.015-61.191-210.423-146.958
		c36.962,79.162,117.263,134.003,210.394,134.003c93.134,0,173.463-54.838,210.423-134.003
		C435.003,991.18,352.661,1052.371,256.01,1052.371L256.01,1052.371z"/>
		<g transform="matrix(1.0068 0 0 1.0068 887.63 -4.692)">
			<path style="fill:#F8F6DE;" d="M-378.439,790.29c0,137.475-111.445,248.92-248.92,248.92c0,0,0,0,0,0
			c-137.475,0-248.92-111.445-248.92-248.92v0c0-137.475,111.445-248.92,248.92-248.92S-378.439,652.816-378.439,790.29
			L-378.439,790.29z"/>
			<path style="fill:#9ADBB6;" d="M-393.374,790.29c0,129.226-104.758,233.984-233.984,233.984S-861.343,919.516-861.343,790.29l0,0
			c0-129.226,104.758-233.984,233.984-233.984l0,0C-498.133,556.306-393.374,661.064-393.374,790.29z"/>
			<g transform="translate(0 540.36)">
				<path style="fill:#456196;" d="M-618.376,327.548c-78.661,0.005-154.238,14.45-210.762,40.283
				c41.874,71.78,118.678,115.965,201.779,116.082c85.704-0.008,164.546-46.872,205.508-122.154
				C-476.669,339.689-546.34,327.561-618.376,327.548z"/>
				<path style="fill:#F73F3F;" d="M-626.766,70.534c-14.005,0.005-25.654,4.789-26.77,10.992c-0.176,0.177-0.299,0.448-0.299,0.771
				v3.158c0,0.538,0.318,0.973,0.711,0.973h1.025c3.773,4.782,13.927,7.986,25.332,7.992c11.404-0.006,21.557-3.21,25.33-7.992
				h1.053c0.393,0,0.709-0.434,0.709-0.973v-3.158c0-0.333-0.129-0.612-0.314-0.787C-601.122,75.312-612.77,70.537-626.766,70.534z" />
				<path style="fill:#3C517D;" d="M-580.622,330.467l-105.465,61.236l53,91.922c1.908,0.119,3.818,0.215,5.729,0.287
				c67.247-0.075,131.211-29.08,175.576-79.615L-580.622,330.467z"/>
			</g>
			<path style="fill:#FFFFFF;" d="M-679.693,927.142l26.339-231.975h54.582l23.747,233.371L-679.693,927.142z"/>
			<path style="fill:#FEC228;" d="M-627.359,887.596c10.185,0,18.384,4.936,18.384,11.067v23.794c0,6.131-8.199,11.067-18.384,11.067
			s-18.384-4.936-18.384-11.067v-23.794C-645.743,892.532-637.543,887.596-627.359,887.596z"/>
			<g>
				<path style="fill:#F73F3F;" d="M-684.638,922.036h114.558c2.075,0,3.746,2.093,3.746,4.693v4.445c0,2.6-1.671,4.693-3.746,4.693
				h-114.558c-2.075,0-3.746-2.093-3.746-4.693v-4.445C-688.384,924.129-686.713,922.036-684.638,922.036z"/>
				<path style="fill:#F73F3F;" d="M-673.224,868.459l4.979-42.951l82.728,0.106l4.341,42.845H-673.224z"/>
				<path style="fill:#F73F3F;" d="M-658.441,738.702l4.943-43.536h54.704l4.427,43.536H-658.441z"/>
			</g>
			<path style="fill:#FFFFFF;" d="M-653.819,655.83h54.13v39.336h-54.13V655.83z"/>
			<path style="fill:#FEC228;" d="M-664.762,671.988c-1.01,0-1.824,0.813-1.824,1.822v1.459c0,1.01,0.815,1.822,1.824,1.822h1.695
			l2.086,17.293c0.28,2.322,2.338,3.332,4.252,3.332h60.717c1.786-0.186,3.519-1.498,3.738-3.014l2.125-17.611h0.895
			c1.01,0,1.822-0.813,1.822-1.822v-1.459c0-1.01-0.813-1.822-1.822-1.822H-664.762z M-657.124,677.091h10.199v12.332h-8.711
			L-657.124,677.091z M-642.84,677.091h14.045v12.332h-14.045V677.091z M-624.711,677.091h14.299v12.332h-14.299V677.091z
			 M-606.327,677.091h10.234l-1.488,12.332h-8.746V677.091z"/>
			<path style="fill:#DCEFEB;" d="M-653.007,626.204h52.506v29.044h-52.506V626.204z"/>
			<path style="fill:#F73F3F;" d="M-654.167,652.003h54.826c1.01,0,1.823,0.813,1.823,1.823v1.458c0,1.01-0.813,1.823-1.823,1.823
			h-54.826c-1.01,0-1.823-0.813-1.823-1.823v-1.458C-655.989,652.816-655.176,652.003-654.167,652.003z"/>
			<g>
				<path style="fill:#3D0504;" d="M-618.321,636.15c0,3.153-3.777,5.708-8.437,5.708s-8.437-2.556-8.437-5.708
				s3.777-5.708,8.437-5.708S-618.321,632.998-618.321,636.15z"/>
				<path style="fill:#3D0504;" d="M-634.994,637.736h16.481v14.267h-16.481V637.736z"/>
				<path style="fill:#3D0504;" d="M-635.033,635.598h16.558c0.122,0,0.221,0.206,0.221,0.461v1.517c0,0.255-0.099,0.461-0.221,0.461
				h-16.558c-0.122,0-0.221-0.206-0.221-0.461v-1.517C-635.254,635.805-635.156,635.598-635.033,635.598z"/>
				<path style="fill:#3D0504;" d="M-626.945,626.445c0.916,0,1.654,0.738,1.654,1.654v3.608c0,0.916-0.738,1.654-1.654,1.654
				s-1.654-0.738-1.654-1.654v-3.608C-628.599,627.182-627.862,626.445-626.945,626.445z"/>
			</g>
			<path style="fill:#FEC228;" d="M-631.725,635.767h9.942c0.744,0,1.344,0.599,1.344,1.344v5.131c0,0.744-0.599,1.344-1.344,1.344
			h-9.942c-0.744,0-1.344-0.599-1.344-1.344v-5.131C-633.069,636.366-632.469,635.767-631.725,635.767z"/>
			<g transform="translate(0 540.36)">
				<path style="fill:#FBF7E7;" d="M-769.44,64.235c-21.982,16.868-40.794,37.506-55.559,60.953l192.563-22.141l0.053-7.441
				L-769.44,64.235L-769.44,64.235z"/>
				<path style="fill:#FBF7E7;" d="M-485.559,64.172l-136.77,31.307l0.053,7.441l192.711,22.158
				C-444.464,101.612-463.425,80.987-485.559,64.172L-485.559,64.172z"/>
			</g>
			<g>
				<path style="fill:#FEC228;stroke:#F73F3F;stroke-width:3.988;" d="M-624.916,753.338h0.134c5.251,0,9.508,2.486,9.508,5.552
				v12.096c0,3.066-4.257,5.552-9.508,5.552h-0.134c-5.251,0-9.508-2.486-9.508-5.552V758.89
				C-634.424,755.824-630.168,753.338-624.916,753.338z"/>
				<path style="fill:#FEC228;stroke:#F73F3F;stroke-width:3.988;" d="M-624.916,791.618h0.134c5.251,0,9.508,2.486,9.508,5.552
				v12.096c0,3.066-4.257,5.552-9.508,5.552h-0.134c-5.251,0-9.508-2.486-9.508-5.552V797.17
				C-634.424,794.104-630.168,791.618-624.916,791.618z"/>
			</g>
			<path style="opacity:0.15;fill:#3B3C3D;enable-background:new    ;" d="M-627.344,556.306
			c-98.42,0-184.691,60.318-216.674,146.085C-806.38,623.229-722.21,569.26-627.373,569.26c94.839,0,179.691,55.493,217.328,134.657
			C-442.021,618.15-528.924,556.306-627.344,556.306L-627.344,556.306z"/>
		</g>
	</g>
</svg>